<svg width="20" height="20" viewBox="0 0 20 20" fill="none" xmlns="http://www.w3.org/2000/svg">
<path d="M17.7778 0H2.22222C0.994923 0 0 0.994923 0 2.22222V17.7778C0 19.0051 0.994923 20 2.22222 20H17.7778C19.0051 20 20 19.0051 20 17.7778V2.22222C20 0.994923 19.0051 0 17.7778 0Z" fill="white"/>
<path fill-rule="evenodd" clip-rule="evenodd" d="M16.7956 3.72701V6.31325L15.2606 6.31725C14.0574 6.31725 13.8256 6.88886 13.8256 7.7243V9.57504H16.6916L16.3199 12.4691H13.8256V20H10.836V12.4691H8.33331V9.57504H10.836V7.44049C10.836 4.96217 12.3466 3.61108 14.5611 3.61108C15.6168 3.61108 16.5278 3.69103 16.7956 3.72701Z" fill="#0036FF"/>
</svg>
