<svg width="21" height="21" viewBox="0 0 21 21" fill="none" xmlns="http://www.w3.org/2000/svg">
<path d="M19.075 5.93246L11.97 1.30371C11.5318 1.02113 11.0214 0.87085 10.5 0.87085C9.97858 0.87085 9.46821 1.02113 9.03 1.30371L1.925 5.93246C1.61155 6.11928 1.35073 6.38271 1.16706 6.69802C0.983386 7.01332 0.882886 7.37014 0.875 7.73496V20.125H8.75V15.2512H12.25V20.125H20.125V7.73496C20.1171 7.37014 20.0166 7.01332 19.8329 6.69802C19.6493 6.38271 19.3885 6.11928 19.075 5.93246ZM18.375 18.375H14V13.5012H7V18.375H2.625V7.73496C2.63139 7.6636 2.65556 7.59498 2.6953 7.53537C2.73504 7.47576 2.78909 7.42705 2.8525 7.39371L9.9575 2.76496C10.1132 2.67077 10.2918 2.62098 10.4738 2.62098C10.6557 2.62098 10.8343 2.67077 10.99 2.76496L18.095 7.39371C18.1584 7.42705 18.2125 7.47576 18.2522 7.53537C18.2919 7.59498 18.3161 7.6636 18.3225 7.73496L18.375 18.375Z" fill="white"/>
</svg>
