<svg width="21" height="21" viewBox="0 0 21 21" fill="none" xmlns="http://www.w3.org/2000/svg">
<path fill-rule="evenodd" clip-rule="evenodd" d="M20.1779 9.93948C20.0285 4.85763 15.7687 0.747314 10.6121 0.747314C5.45551 0.747314 1.27046 4.7829 1.04626 9.79002C1.04626 9.93948 1.04626 10.089 1.04626 10.2384C1.04626 12.032 1.56939 13.6761 2.39146 15.0961L0.74733 20.1779L5.97865 18.5338C7.32384 19.2811 8.89324 19.7295 10.6121 19.7295C15.9181 19.7295 20.1779 15.4697 20.1779 10.2384C20.1779 10.1637 20.1779 10.089 20.1779 9.93948ZM10.6121 18.1601C8.96797 18.1601 7.47331 17.7117 6.20285 16.8149L3.13879 17.7865L4.11032 14.7971C3.13879 13.4519 2.61566 11.8825 2.61566 10.1637C2.61566 9.93948 2.61566 9.64055 2.69039 9.41635C2.98932 5.38077 6.42704 2.24198 10.6121 2.24198C14.7972 2.24198 18.3096 5.4555 18.6085 9.56582C18.6085 9.79002 18.6085 10.0142 18.6085 10.1637C18.6085 14.5729 15.0213 18.1601 10.6121 18.1601Z" fill="#333333"/>
<path fill-rule="evenodd" clip-rule="evenodd" d="M15.0213 12.1068C14.7972 11.9574 13.6014 11.4342 13.452 11.3595C13.2278 11.2848 13.0783 11.21 12.9288 11.509C12.7794 11.7332 12.331 12.2563 12.1815 12.4057C12.032 12.5552 11.8826 12.5552 11.6584 12.4805C11.4342 12.331 10.6868 12.1068 9.79003 11.3595C9.11744 10.7616 8.5943 10.0143 8.51957 9.79009C8.3701 9.56589 8.51957 9.41642 8.5943 9.34169C8.66904 9.26696 8.8185 9.04276 8.96797 8.96803C8.96797 8.89329 9.0427 8.89329 9.0427 8.89329C9.11744 8.81856 9.11744 8.74383 9.19217 8.59436C9.2669 8.44489 9.2669 8.29543 9.19217 8.2207C9.11744 8.07123 8.66904 6.95023 8.44484 6.50183C8.22064 6.05344 8.07117 6.12817 7.92171 6.12817C7.77224 6.12817 7.62277 6.12817 7.47331 6.12817C7.24911 5.90397 7.02491 5.9787 6.80071 6.2029C6.57651 6.4271 5.97865 6.95023 5.97865 8.14596C5.97865 8.44489 6.05338 8.66909 6.12811 8.96803C6.35231 9.79009 6.87544 10.4627 6.95018 10.6122C7.09964 10.7616 8.5943 13.1531 10.911 14.1246C13.3025 15.0214 13.3025 14.7225 13.7509 14.7225C14.1993 14.7225 15.1708 14.1993 15.3203 13.6015C15.5445 13.0783 15.5445 12.6299 15.4697 12.4805C15.395 12.331 15.2455 12.2563 15.0213 12.1068Z" fill="#333333"/>
</svg>
