<svg width="21" height="21" viewBox="0 0 21 21" fill="none" xmlns="http://www.w3.org/2000/svg">
<path fill-rule="evenodd" clip-rule="evenodd" d="M20.1779 9.93948C20.0285 4.85763 15.7687 0.747314 10.6121 0.747314C5.45553 0.747314 1.27048 4.7829 1.04628 9.79002C1.04628 9.93948 1.04628 10.089 1.04628 10.2384C1.04628 12.032 1.56941 13.6761 2.39147 15.0961L0.747345 20.1779L5.97866 18.5338C7.32386 19.2811 8.89325 19.7295 10.6121 19.7295C15.9182 19.7295 20.1779 15.4697 20.1779 10.2384C20.1779 10.1637 20.1779 10.089 20.1779 9.93948ZM10.6121 18.1601C8.96799 18.1601 7.47332 17.7117 6.20286 16.8149L3.1388 17.7865L4.11033 14.7971C3.1388 13.4519 2.61567 11.8825 2.61567 10.1637C2.61567 9.93948 2.61567 9.64055 2.69041 9.41635C2.98934 5.38077 6.42706 2.24198 10.6121 2.24198C14.7972 2.24198 18.3096 5.4555 18.6086 9.56582C18.6086 9.79002 18.6086 10.0142 18.6086 10.1637C18.6086 14.5729 15.0214 18.1601 10.6121 18.1601Z" fill="white"/>
<path fill-rule="evenodd" clip-rule="evenodd" d="M15.0214 12.1068C14.7972 11.9574 13.6014 11.4342 13.452 11.3595C13.2278 11.2848 13.0783 11.21 12.9288 11.509C12.7794 11.7332 12.331 12.2563 12.1815 12.4057C12.032 12.5552 11.8826 12.5552 11.6584 12.4805C11.4342 12.331 10.6869 12.1068 9.79006 11.3595C9.11746 10.7616 8.59433 10.0143 8.51959 9.79009C8.37013 9.56589 8.51959 9.41642 8.59433 9.34169C8.66906 9.26696 8.81853 9.04276 8.96799 8.96803C8.96799 8.89329 9.04273 8.89329 9.04273 8.89329C9.11746 8.81856 9.11746 8.74383 9.19219 8.59436C9.26692 8.44489 9.26692 8.29543 9.19219 8.2207C9.11746 8.07123 8.66906 6.95023 8.44486 6.50183C8.22066 6.05344 8.0712 6.12817 7.92173 6.12817C7.77226 6.12817 7.6228 6.12817 7.47333 6.12817C7.24913 5.90397 7.02493 5.9787 6.80073 6.2029C6.57653 6.4271 5.97867 6.95023 5.97867 8.14596C5.97867 8.44489 6.0534 8.66909 6.12813 8.96803C6.35233 9.79009 6.87547 10.4627 6.9502 10.6122C7.09966 10.7616 8.59433 13.1531 10.9111 14.1246C13.3025 15.0214 13.3025 14.7225 13.7509 14.7225C14.1993 14.7225 15.1708 14.1993 15.3203 13.6015C15.5445 13.0783 15.5445 12.6299 15.4698 12.4805C15.395 12.331 15.2456 12.2563 15.0214 12.1068Z" fill="white"/>
</svg>
